<?xml version="1.0" encoding="UTF-8" standalone="no"?>
<!-- Created with Inkscape (http://www.inkscape.org/) -->

<svg
   xmlns:dc="http://purl.org/dc/elements/1.1/"
   xmlns:cc="http://creativecommons.org/ns#"
   xmlns:rdf="http://www.w3.org/1999/02/22-rdf-syntax-ns#"
   xmlns:svg="http://www.w3.org/2000/svg"
   xmlns="http://www.w3.org/2000/svg"
   xmlns:sodipodi="http://sodipodi.sourceforge.net/DTD/sodipodi-0.dtd"
   xmlns:inkscape="http://www.inkscape.org/namespaces/inkscape"
   width="512"
   height="512"
   viewBox="0 0 512.00001 512.00001"
   id="svg3457"
   version="1.1"
   inkscape:version="0.91 r13725"
   sodipodi:docname="icon.svg"
   inkscape:export-filename="/home/igos/Desktop/icon.png"
   inkscape:export-xdpi="90.012199"
   inkscape:export-ydpi="90.012199">
  <defs
     id="defs3459" />
  <sodipodi:namedview
     id="base"
     pagecolor="#ffffff"
     bordercolor="#666666"
     borderopacity="1.0"
     inkscape:pageopacity="0.0"
     inkscape:pageshadow="2"
     inkscape:zoom="1.0136719"
     inkscape:cx="256"
     inkscape:cy="256"
     inkscape:document-units="px"
     inkscape:current-layer="g224"
     showgrid="false"
     units="px"
     inkscape:window-width="1366"
     inkscape:window-height="691"
     inkscape:window-x="0"
     inkscape:window-y="24"
     inkscape:window-maximized="1" />
  <metadata
     id="metadata3462">
    <rdf:RDF>
      <cc:Work
         rdf:about="">
        <dc:format>image/svg+xml</dc:format>
        <dc:type
           rdf:resource="http://purl.org/dc/dcmitype/StillImage" />
        <dc:title></dc:title>
      </cc:Work>
    </rdf:RDF>
  </metadata>
  <g
     inkscape:label="Layer 1"
     inkscape:groupmode="layer"
     id="layer1"
     transform="translate(0,-540.36216)">
    <path
       inkscape:connector-curvature="0"
       id="path126"
       style="fill:#ff4382;fill-opacity:1;fill-rule:nonzero;stroke:none"
       d="m 512.01574,1052.6293 -511.38188047,0 0,-511.7284 511.38188047,0 0,511.7284 z" />
    <g
       transform="matrix(10.328137,0,0,-10.46895,50.885541,996.34068)"
       id="g194">
      <path
         inkscape:connector-curvature="0"
         id="path196"
         style="fill:#ffffff;fill-opacity:1;fill-rule:nonzero;stroke:none"
         d="m 0,0 c 1.514,-1.517 3.974,-1.517 5.491,0 l 9.504,9.504 c -2.202,1.415 -4.076,3.289 -5.491,5.491 L 0,5.491 C -1.517,3.974 -1.517,1.514 0,0" />
    </g>
    <g
       transform="matrix(10.328137,0,0,-10.46895,186.19647,737.22167)"
       id="g198">
      <path
         inkscape:connector-curvature="0"
         id="path200"
         style="fill:#ffffff;fill-opacity:1;fill-rule:nonzero;stroke:none"
         d="M 0,0 C 0,6.424 5.226,11.65 11.65,11.65 18.074,11.65 23.3,6.424 23.3,0 23.3,-6.424 18.074,-11.65 11.65,-11.65 5.226,-11.65 0,-6.424 0,0 m 11.65,-15.533 c 8.578,0 15.533,6.955 15.533,15.533 0,8.578 -6.955,15.533 -15.533,15.533 C 3.072,15.533 -3.883,8.578 -3.883,0 c 0,-8.578 6.955,-15.533 15.533,-15.533" />
    </g>
    <g
       transform="matrix(7.0904922,0,0,-6.6377877,306.8054,711.52208)"
       id="g224">
      <path
         inkscape:connector-curvature="0"
         id="path226"
         style="fill:#ffffff;fill-opacity:1;fill-rule:nonzero;stroke:none"
         d="m 0.27826348,-4.1613791 c -2.76499998,0 -5.00899998,2.243 -5.00899998,5.00900005 0,2.76499995 2.244,5.00799995 5.00899998,5.00799995 2.76500002,0 5.00900002,-2.243 5.00900002,-5.00799995 0,-2.76600005 -2.244,-5.00900005 -5.00900002,-5.00900005 m 0,13.357 c -4.61099998,0 -8.34799998,-3.737 -8.34799998,-8.34799995 0,-1.246 0.274,-2.43000005 0.762,-3.48900005 l 6.35799998,-13.7989999 c 0.305,-0.664 0.742,-1.078 1.228,-1.078 0.486,0 0.92300002,0.414 1.22800002,1.076 l 6.358,13.8009999 c 0.49,1.059 0.762,2.24300005 0.762,3.48900005 0,4.61099995 -3.737,8.34799995 -8.34800002,8.34799995" />
    </g>
  </g>
</svg>
